<!-- Generated by IcoMoon.io -->
<svg version="1.1" xmlns="http://www.w3.org/2000/svg" width="30" height="30" viewBox="0 0 30 30">
<title>social-facebook-circular</title>
<path fill="hsl(0, 0%, 100%)" d="M22.943 7.030c-2.188-2.176-4.86-3.28-7.943-3.28-3.111 0-5.791 1.105-7.966 3.281-2.179 2.176-3.284 4.859-3.284 7.969 0 3.081 1.104 5.754 3.28 7.943 2.176 2.195 4.858 3.307 7.97 3.307 3.084 0 5.756-1.112 7.945-3.304 2.194-2.191 3.305-4.865 3.305-7.946 0-3.11-1.112-5.792-3.307-7.97zM21.178 21.179c-1.421 1.424-3.045 2.235-4.927 2.481v-6.16h2.5v-2.5h-2.5v-1.75c0-0.414 0.336-0.75 0.751-0.75h1.749v-2.5h-1.746c-0.928 0-1.701 0.341-2.321 1.027-0.62 0.684-0.932 1.519-0.932 2.51v1.463h-2.5v2.5h2.5v6.163c-1.903-0.244-3.533-1.056-4.946-2.48-1.719-1.73-2.554-3.752-2.554-6.182 0-2.458 0.834-4.485 2.552-6.2 1.712-1.716 3.74-2.55 6.197-2.55 2.431 0 4.453 0.835 6.181 2.554 1.729 1.715 2.569 3.743 2.569 6.196 0 2.426-0.841 4.449-2.573 6.179z"></path>
</svg>
